<svg width="20" height="20" viewBox="0 0 20 20" fill="none" xmlns="http://www.w3.org/2000/svg"><path d="M15.625 5V13.125C15.625 13.2908 15.5591 13.4497 15.4419 13.5669C15.3247 13.6842 15.1658 13.75 15 13.75C14.8342 13.75 14.6753 13.6842 14.5581 13.5669C14.4408 13.4497 14.375 13.2908 14.375 13.125V6.50859L5.44218 15.4422C5.32491 15.5595 5.16585 15.6253 5 15.6253C4.83414 15.6253 4.67508 15.5595 4.55781 15.4422C4.44053 15.3249 4.37465 15.1659 4.37465 15C4.37465 14.8341 4.44053 14.6751 4.55781 14.5578L13.4914 5.625H6.875C6.70924 5.625 6.55027 5.55915 6.43305 5.44194C6.31584 5.32473 6.25 5.16576 6.25 5C6.25 4.83424 6.31584 4.67527 6.43305 4.55806C6.55027 4.44085 6.70924 4.375 6.875 4.375H15C15.1658 4.375 15.3247 4.44085 15.4419 4.55806C15.5591 4.67527 15.625 4.83424 15.625 5Z" fill="#E4E3DD"></path></svg>