<svg width="20" height="20" viewBox="0 0 20 20" fill="none" xmlns="http://www.w3.org/2000/svg">
<path d="M16.875 5.625H2.5V3.75C2.5 3.58424 2.43415 3.42527 2.31694 3.30806C2.19973 3.19085 2.04076 3.125 1.875 3.125C1.70924 3.125 1.55027 3.19085 1.43306 3.30806C1.31585 3.42527 1.25 3.58424 1.25 3.75V16.25C1.25 16.4158 1.31585 16.5747 1.43306 16.6919C1.55027 16.8092 1.70924 16.875 1.875 16.875C2.04076 16.875 2.19973 16.8092 2.31694 16.6919C2.43415 16.5747 2.5 16.4158 2.5 16.25V13.75H18.75V16.25C18.75 16.4158 18.8158 16.5747 18.9331 16.6919C19.0503 16.8092 19.2092 16.875 19.375 16.875C19.5408 16.875 19.6997 16.8092 19.8169 16.6919C19.9342 16.5747 20 16.4158 20 16.25V8.75C20 7.9212 19.6708 7.12634 19.0847 6.54029C18.4987 5.95424 17.7038 5.625 16.875 5.625ZM2.5 6.875H8.125V12.5H2.5V6.875ZM9.375 12.5V6.875H16.875C17.3723 6.875 17.8492 7.07254 18.2008 7.42417C18.5525 7.77581 18.75 8.25272 18.75 8.75V12.5H9.375Z" fill="#47413C"/>
</svg>
