<svg width="20" height="20" viewBox="0 0 20 20" fill="none" xmlns="http://www.w3.org/2000/svg">
<path d="M14.1922 10.4423L7.94218 16.6923C7.88412 16.7504 7.81518 16.7964 7.73931 16.8278C7.66344 16.8593 7.58212 16.8755 7.5 16.8755C7.41787 16.8755 7.33656 16.8593 7.26069 16.8278C7.18482 16.7964 7.11588 16.7504 7.05781 16.6923C6.99974 16.6342 6.95368 16.5653 6.92225 16.4894C6.89082 16.4135 6.87465 16.3322 6.87465 16.2501C6.87465 16.168 6.89082 16.0867 6.92225 16.0108C6.95368 15.9349 6.99974 15.866 7.05781 15.8079L12.8664 10.0001L7.05781 4.19229C6.94053 4.07502 6.87465 3.91596 6.87465 3.7501C6.87465 3.58425 6.94053 3.42519 7.05781 3.30792C7.17508 3.19064 7.33414 3.12476 7.5 3.12476C7.66585 3.12476 7.82491 3.19064 7.94218 3.30792L14.1922 9.55792C14.2503 9.61596 14.2964 9.68489 14.3278 9.76077C14.3593 9.83664 14.3755 9.91797 14.3755 10.0001C14.3755 10.0822 14.3593 10.1636 14.3278 10.2394C14.2964 10.3153 14.2503 10.3842 14.1922 10.4423Z" fill="#47413C"/>
</svg>
