<svg width="16" height="17" viewBox="0 0 16 17" fill="none" xmlns="http://www.w3.org/2000/svg">
<path d="M13.3538 6.85354L8.35378 11.8535C8.30735 11.9 8.2522 11.9369 8.1915 11.9621C8.13081 11.9872 8.06574 12.0002 8.00003 12.0002C7.93433 12.0002 7.86926 11.9872 7.80856 11.9621C7.74786 11.9369 7.69272 11.9 7.64628 11.8535L2.64628 6.85354C2.55246 6.75972 2.49976 6.63247 2.49976 6.49979C2.49976 6.36711 2.55246 6.23986 2.64628 6.14604C2.7401 6.05222 2.86735 5.99951 3.00003 5.99951C3.13272 5.99951 3.25996 6.05222 3.35378 6.14604L8.00003 10.7929L12.6463 6.14604C12.6927 6.09958 12.7479 6.06273 12.8086 6.03759C12.8693 6.01245 12.9343 5.99951 13 5.99951C13.0657 5.99951 13.1308 6.01245 13.1915 6.03759C13.2522 6.06273 13.3073 6.09958 13.3538 6.14604C13.4002 6.19249 13.4371 6.24764 13.4622 6.30834C13.4874 6.36904 13.5003 6.43409 13.5003 6.49979C13.5003 6.56549 13.4874 6.63054 13.4622 6.69124C13.4371 6.75193 13.4002 6.80708 13.3538 6.85354Z" fill="#47413C"/>
</svg>
