<svg width="103" height="3" viewBox="0 0 103 31" fill="none" xmlns="http://www.w3.org/2000/svg">
<path d="M1.51758 30.4072C1.10286 30.4072 0.806641 30.276 0.628906 30.0137C0.442708 29.7598 0.349609 29.5016 0.349609 29.2393C0.349609 28.5199 0.654297 27.7454 1.26367 26.916C1.86458 26.0866 2.70671 25.2614 3.79004 24.4404C4.87337 23.6279 6.1429 22.8704 7.59863 22.168C9.05436 21.4655 10.6328 20.8815 12.334 20.416C12.8079 19.7982 13.2777 19.1676 13.7432 18.5244C14.2087 17.8812 14.6742 17.238 15.1396 16.5947C14.6234 16.3154 14.196 15.9219 13.8574 15.4141C13.5189 14.9062 13.3496 14.3096 13.3496 13.624C13.3496 12.5407 13.6035 11.487 14.1113 10.4629C14.6191 9.4388 15.3216 8.49089 16.2188 7.61914C17.1243 6.73893 18.1738 5.96875 19.3672 5.30859C20.5605 4.64844 21.8428 4.13639 23.2139 3.77246C24.5934 3.40007 26.0068 3.21387 27.4541 3.21387C27.8773 3.21387 28.2878 3.24349 28.6855 3.30273C29.0833 3.36198 29.4515 3.3916 29.79 3.3916C30.0016 3.3916 30.2132 3.37891 30.4248 3.35352C30.6364 3.31966 30.8564 3.30273 31.085 3.30273C31.4066 3.30273 31.5674 3.35775 31.5674 3.46777C31.5674 3.60319 31.4277 3.68359 31.1484 3.70898C30.8776 3.73438 30.6279 3.74707 30.3994 3.74707C30.2471 3.74707 30.099 3.74707 29.9551 3.74707C29.8197 3.73861 29.6927 3.73438 29.5742 3.73438C28.1185 4.08984 26.5697 5.02507 24.9277 6.54004C23.2943 8.05501 21.6396 10.0905 19.9639 12.6465C19.4391 13.3743 18.9271 14.0726 18.4277 14.7412C17.9368 15.4098 17.4587 16.0573 16.9932 16.6836C17.6956 16.6836 18.4362 16.4974 19.2148 16.125C20.002 15.7526 20.7637 15.2533 21.5 14.627C22.2448 14.0007 22.9176 13.3024 23.5186 12.5322C24.1195 11.7536 24.5977 10.9622 24.9531 10.1582C25.3086 9.3457 25.4863 8.57975 25.4863 7.86035C25.4863 7.59798 25.5329 7.4668 25.626 7.4668C25.6937 7.4668 25.7318 7.52604 25.7402 7.64453C25.7572 7.76302 25.7656 7.89844 25.7656 8.05078C25.7656 8.88021 25.5964 9.72233 25.2578 10.5771C24.9193 11.4235 24.4538 12.2318 23.8613 13.002C23.2689 13.7721 22.5918 14.4619 21.8301 15.0713C21.0684 15.6722 20.2601 16.1504 19.4053 16.5059C18.5589 16.8529 17.7083 17.0264 16.8535 17.0264H16.7266C16.3542 17.5257 15.986 18.0124 15.6221 18.4863C15.2581 18.9518 14.9027 19.4004 14.5557 19.832C15.1735 19.6628 15.6813 19.5273 16.0791 19.4258C16.4769 19.3242 16.8366 19.2269 17.1582 19.1338C17.4798 19.0407 17.8184 18.9307 18.1738 18.8037C18.5378 18.6768 18.9906 18.5075 19.5322 18.2959C19.71 18.2197 19.8327 18.1647 19.9004 18.1309C19.9681 18.0885 20.0189 18.0674 20.0527 18.0674C20.0527 18.0674 20.0697 18.0758 20.1035 18.0928C20.1458 18.1097 20.167 18.1351 20.167 18.1689C20.1585 18.2197 20.1247 18.2747 20.0654 18.334C20.0146 18.3848 19.9046 18.444 19.7354 18.5117C19.346 18.6725 18.9948 18.8164 18.6816 18.9434C18.3685 19.0703 18.0215 19.2015 17.6406 19.3369C17.2682 19.4639 16.8027 19.612 16.2441 19.7812C15.694 19.9421 14.9873 20.141 14.124 20.3779C12.5752 22.2992 11.1787 23.903 9.93457 25.1895C8.69889 26.4844 7.58171 27.5127 6.58301 28.2744C5.58431 29.0361 4.67448 29.582 3.85352 29.9121C3.02409 30.2422 2.24544 30.4072 1.51758 30.4072ZM15.3682 16.2646L16.9043 14.0811C18.487 11.8298 20.0316 9.97201 21.5381 8.50781C23.0446 7.03516 24.4326 5.90527 25.7021 5.11816C26.9801 4.33105 28.0592 3.84017 28.9395 3.64551C28.7194 3.61165 28.4824 3.58626 28.2285 3.56934C27.9831 3.55241 27.7757 3.54395 27.6064 3.54395C26.7432 3.54395 25.8079 3.69629 24.8008 4.00098C23.8021 4.2972 22.7949 4.70768 21.7793 5.23242C20.7637 5.75716 19.7946 6.3623 18.8721 7.04785C17.9495 7.72493 17.1243 8.44857 16.3965 9.21875C15.6771 9.98893 15.1058 10.7676 14.6826 11.5547C14.2594 12.3418 14.0479 13.0993 14.0479 13.8271C14.0479 14.4111 14.1706 14.9062 14.416 15.3125C14.6615 15.7188 14.9788 16.0361 15.3682 16.2646ZM1.55566 30.0898C2.4528 30.0898 3.45573 29.6836 4.56445 28.8711C5.67318 28.0586 6.84961 26.9626 8.09375 25.583C9.33789 24.2035 10.6074 22.6715 11.9023 20.9873C10.9798 21.3089 10.0065 21.7321 8.98242 22.2568C7.95833 22.79 6.95964 23.374 5.98633 24.0088C5.01302 24.652 4.13281 25.3037 3.3457 25.9639C2.55859 26.624 1.93229 27.2461 1.4668 27.8301C0.992839 28.4141 0.755859 28.9134 0.755859 29.3281C0.755859 29.5397 0.832031 29.7174 0.984375 29.8613C1.12826 30.0137 1.31868 30.0898 1.55566 30.0898ZM24.2803 21.0254C23.5693 21.0254 23.0446 20.8646 22.7061 20.543C22.3675 20.2129 22.1771 19.8109 22.1348 19.3369C22.1094 18.7614 22.2279 18.1436 22.4902 17.4834C22.7611 16.8232 23.0531 16.2689 23.3662 15.8203C23.7809 15.2363 24.2845 14.6777 24.877 14.1445C25.4694 13.6029 26.1169 13.1628 26.8193 12.8242C27.5303 12.4772 28.2581 12.3037 29.0029 12.3037C29.4515 12.3037 29.8366 12.4222 30.1582 12.6592C30.4883 12.8877 30.6702 13.2559 30.7041 13.7637C30.7464 14.4831 30.6068 15.2406 30.2852 16.0361C29.9635 16.8232 29.5277 17.5553 28.9775 18.2324C29.0368 18.4779 29.2272 18.6006 29.5488 18.6006C29.862 18.6006 30.2048 18.4779 30.5771 18.2324C30.9495 17.9785 31.3092 17.6823 31.6562 17.3438C32.0117 17.0052 32.3164 16.6921 32.5703 16.4043C32.8242 16.1165 32.9935 15.9303 33.0781 15.8457L33.3574 16.0615C33.1966 16.2139 32.9681 16.4508 32.6719 16.7725C32.3757 17.0856 32.0456 17.4115 31.6816 17.75C31.3262 18.0801 30.958 18.3636 30.5771 18.6006C30.2048 18.8376 29.8535 18.9561 29.5234 18.9561C29.1172 18.9561 28.8421 18.8291 28.6982 18.5752C28.0719 19.2861 27.3652 19.8743 26.5781 20.3398C25.7995 20.7969 25.0335 21.0254 24.2803 21.0254ZM24.6104 20.6445C24.9066 20.6445 25.2493 20.5599 25.6387 20.3906C26.028 20.2214 26.4173 19.9971 26.8066 19.7178C27.4583 19.2523 28.0465 18.7064 28.5713 18.0801V18.0293C28.5713 17.5046 28.7067 17.0898 28.9775 16.7852C29.2568 16.472 29.5277 16.2731 29.79 16.1885C30.2048 15.3252 30.391 14.5508 30.3486 13.8652C30.3232 13.4505 30.2132 13.1628 30.0186 13.002C29.8324 12.8411 29.625 12.7607 29.3965 12.7607C28.9056 12.7607 28.3005 13.0527 27.5811 13.6367C26.8701 14.2122 26.0745 15.0459 25.1943 16.1377C24.568 16.9248 24.1279 17.5892 23.874 18.1309C23.6286 18.6725 23.5228 19.1423 23.5566 19.54C23.5566 19.7686 23.6328 20.0098 23.7852 20.2637C23.946 20.5176 24.221 20.6445 24.6104 20.6445ZM38.2705 21.0254C37.8812 21.0254 37.5003 20.9365 37.1279 20.7588C36.764 20.5811 36.582 20.3441 36.582 20.0479C36.582 19.8193 36.6328 19.5527 36.7344 19.248C36.8444 18.9349 37.0898 18.5075 37.4707 17.9658C37.8516 17.4242 38.4567 16.6878 39.2861 15.7568C39.9548 15.0036 40.416 14.4196 40.6699 14.0049C40.9238 13.5902 41.0508 13.2812 41.0508 13.0781C41.0508 12.9596 41.0085 12.8538 40.9238 12.7607C40.8477 12.6676 40.6911 12.6211 40.4541 12.6211C40.2594 12.6211 39.9928 12.6761 39.6543 12.7861C39.3242 12.8962 38.9603 13.0824 38.5625 13.3447C37.8939 13.8018 37.0645 14.5085 36.0742 15.4648C35.084 16.4128 33.9668 17.6611 32.7227 19.21L31.5547 20.7588C31.4193 20.7334 31.2923 20.7165 31.1738 20.708C31.0553 20.6995 30.9368 20.6953 30.8184 20.6953C30.5137 20.6953 30.2598 20.7122 30.0566 20.7461C29.8451 20.7715 29.6927 20.7969 29.5996 20.8223L43.6533 0.750977C43.7633 0.75944 43.9072 0.772135 44.085 0.789062C44.2712 0.80599 44.5335 0.810221 44.8721 0.801758C44.9398 0.801758 45.0202 0.797526 45.1133 0.789062C45.2064 0.772135 45.3079 0.75944 45.418 0.750977L32.8242 18.2324L32.8877 18.3721C34.1826 16.8825 35.2829 15.7145 36.1885 14.8682C37.0941 14.0133 37.8473 13.3828 38.4482 12.9766C38.8714 12.7057 39.2607 12.528 39.6162 12.4434C39.9801 12.3503 40.2975 12.3037 40.5684 12.3037C41.1185 12.3037 41.5078 12.4391 41.7363 12.71C41.9733 12.9723 42.0833 13.2643 42.0664 13.5859C42.0495 13.9245 41.9352 14.3307 41.7236 14.8047C41.512 15.2702 41.1439 15.8542 40.6191 16.5566C40.1029 17.2507 39.3708 18.1097 38.4229 19.1338C37.9997 19.5908 37.7415 19.887 37.6484 20.0225C37.5638 20.1494 37.5215 20.2679 37.5215 20.3779C37.5215 20.4626 37.6146 20.5345 37.8008 20.5938C37.987 20.6445 38.1943 20.6699 38.4229 20.6699C38.9561 20.6699 39.4935 20.5218 40.0352 20.2256C40.5853 19.9294 41.1143 19.557 41.6221 19.1084C42.1299 18.6598 42.5911 18.2028 43.0059 17.7373C43.4206 17.2718 43.7676 16.8656 44.0469 16.5186C44.3346 16.1631 44.5208 15.9388 44.6055 15.8457L44.8848 16.0615C44.7747 16.1715 44.5716 16.4128 44.2754 16.7852C43.9876 17.1491 43.6237 17.5723 43.1836 18.0547C42.7435 18.5286 42.2568 18.9941 41.7236 19.4512C41.1904 19.8997 40.6276 20.2764 40.0352 20.5811C39.4512 20.8773 38.863 21.0254 38.2705 21.0254ZM51.5371 21.0254C51.0716 21.0254 50.6654 20.9365 50.3184 20.7588C49.9798 20.5811 49.8105 20.3441 49.8105 20.0479C49.8105 19.8193 49.8613 19.5527 49.9629 19.248C50.0645 18.9349 50.3057 18.5075 50.6865 17.9658C51.0758 17.4242 51.6852 16.6878 52.5146 15.7568C53.1833 15.0036 53.6445 14.4196 53.8984 14.0049C54.1523 13.5902 54.2793 13.2812 54.2793 13.0781C54.2793 12.9596 54.237 12.8538 54.1523 12.7607C54.0677 12.6676 53.9069 12.6211 53.6699 12.6211C53.5007 12.6211 53.2721 12.6761 52.9844 12.7861C52.7051 12.8962 52.3708 13.0824 51.9814 13.3447C51.3128 13.8018 50.4919 14.5085 49.5186 15.4648C48.5452 16.4128 47.4281 17.6611 46.167 19.21L44.9863 20.7588C44.7663 20.7165 44.5208 20.6953 44.25 20.6953C43.9453 20.6953 43.6914 20.7122 43.4883 20.7461C43.2936 20.7715 43.1455 20.7969 43.0439 20.8223C43.9919 19.4512 44.7832 18.3171 45.418 17.4199C46.0527 16.5143 46.5605 15.7907 46.9414 15.249C47.3307 14.7074 47.6185 14.2969 47.8047 14.0176C47.9993 13.7298 48.1305 13.5267 48.1982 13.4082C48.266 13.2812 48.304 13.1797 48.3125 13.1035C48.3294 12.8581 48.2363 12.7354 48.0332 12.7354C47.9147 12.7354 47.7285 12.8538 47.4746 13.0908C47.2207 13.3278 46.9329 13.624 46.6113 13.9795C46.2982 14.335 45.9893 14.7031 45.6846 15.084C45.3799 15.4564 45.1133 15.7822 44.8848 16.0615C44.8255 16.0954 44.7493 16.0742 44.6562 15.998C44.6055 15.9219 44.5928 15.8711 44.6182 15.8457C44.8636 15.5833 45.1387 15.2575 45.4434 14.8682C45.7565 14.4704 46.0824 14.0768 46.4209 13.6875C46.7594 13.2897 47.1064 12.9596 47.4619 12.6973C47.8174 12.4349 48.1602 12.3037 48.4902 12.3037C48.7357 12.3037 48.9769 12.3587 49.2139 12.4688C49.4593 12.5703 49.5609 12.82 49.5186 13.2178C49.5101 13.3532 49.4678 13.5267 49.3916 13.7383C49.3154 13.9414 49.1631 14.2038 48.9346 14.5254L46.2686 18.2324L46.332 18.3721C47.6523 16.8825 48.7526 15.7145 49.6328 14.8682C50.5215 14.0133 51.2705 13.3828 51.8799 12.9766C52.2861 12.7057 52.6416 12.528 52.9463 12.4434C53.2594 12.3503 53.5472 12.3037 53.8096 12.3037C54.3597 12.3037 54.7448 12.4391 54.9648 12.71C55.1934 12.9723 55.3034 13.2643 55.2949 13.5859C55.2865 13.9245 55.1722 14.3307 54.9521 14.8047C54.7406 15.2702 54.3724 15.8542 53.8477 16.5566C53.3314 17.2507 52.6035 18.1097 51.6641 19.1338C51.2324 19.5908 50.9701 19.887 50.877 20.0225C50.7923 20.1494 50.75 20.2679 50.75 20.3779C50.75 20.4626 50.8346 20.5345 51.0039 20.5938C51.1816 20.6445 51.4017 20.6699 51.6641 20.6699C52.1803 20.6699 52.7093 20.5218 53.251 20.2256C53.7926 19.9294 54.3174 19.5612 54.8252 19.1211C55.3415 18.6725 55.8112 18.2155 56.2344 17.75C56.6576 17.2845 57.0088 16.874 57.2881 16.5186C57.5758 16.1631 57.762 15.9388 57.8467 15.8457L58.1133 16.0615C58.0117 16.1715 57.8128 16.4085 57.5166 16.7725C57.2288 17.1364 56.8649 17.5596 56.4248 18.042C55.9847 18.516 55.498 18.9814 54.9648 19.4385C54.4316 19.8955 53.873 20.2764 53.2891 20.5811C52.7051 20.8773 52.1211 21.0254 51.5371 21.0254ZM64.7275 21.0762C63.9066 21.0762 63.3184 20.9788 62.9629 20.7842C62.6159 20.5895 62.4424 20.3737 62.4424 20.1367C62.4424 19.8913 62.6667 19.6501 63.1152 19.4131C63.5638 19.1676 64.2113 19.0449 65.0576 19.0449C65.4977 19.0449 65.9717 19.0957 66.4795 19.1973C66.9958 19.2988 67.694 19.4808 68.5742 19.7432C68.5996 19.7516 68.625 19.7601 68.6504 19.7686C68.6758 19.7686 68.7054 19.777 68.7393 19.7939C69.6195 19.3115 70.6055 18.5371 71.6973 17.4707C72.7975 16.4043 74.1517 14.8978 75.7598 12.9512C76.4876 12.071 77.1986 11.2161 77.8926 10.3867C78.5866 9.55729 79.4033 8.70671 80.3428 7.83496C80.8929 7.31022 81.515 6.8151 82.209 6.34961C81.6165 5.43555 80.804 4.77116 79.7715 4.35645C78.7389 3.94173 77.5667 3.73438 76.2549 3.73438C75.2477 3.73438 74.2702 3.90365 73.3223 4.24219C72.3743 4.57227 71.4899 5.0166 70.6689 5.5752C69.8564 6.12533 69.1413 6.73893 68.5234 7.41602C67.9056 8.0931 67.4232 8.77865 67.0762 9.47266C66.7376 10.1582 66.5684 10.7972 66.5684 11.3896C66.5684 11.999 66.7757 12.4899 67.1904 12.8623C67.6136 13.2347 68.2103 13.4209 68.9805 13.4209C69.5052 13.4209 70.1104 13.2812 70.7959 13.002C71.4814 12.7142 72.1839 12.3249 72.9033 11.834C73.6227 11.3431 74.2913 10.7845 74.9092 10.1582C75.5355 9.5319 76.0475 8.87174 76.4453 8.17773C76.8516 7.48372 77.0758 6.79395 77.1182 6.1084C77.1436 5.91374 77.1901 5.81641 77.2578 5.81641C77.3594 5.81641 77.4102 5.90527 77.4102 6.08301C77.4102 6.99707 77.1774 7.91113 76.7119 8.8252C76.2464 9.73079 75.6117 10.556 74.8076 11.3008C74.012 12.0456 73.1064 12.6465 72.0908 13.1035C71.0837 13.5521 70.0342 13.7764 68.9424 13.7764C68.4261 13.7764 67.9268 13.6663 67.4443 13.4463C66.9704 13.2178 66.5811 12.9046 66.2764 12.5068C65.9801 12.1006 65.832 11.6309 65.832 11.0977C65.832 10.1497 66.0986 9.22298 66.6318 8.31738C67.165 7.40332 67.9056 6.57812 68.8535 5.8418C69.8014 5.10547 70.9017 4.52148 72.1543 4.08984C73.4069 3.64974 74.7484 3.42969 76.1787 3.42969C77.6429 3.42969 78.9251 3.6582 80.0254 4.11523C81.1257 4.57227 82.0101 5.21549 82.6787 6.04492C83.5081 5.52018 84.3799 5.07585 85.2939 4.71191C86.2165 4.34798 87.0755 4.14909 87.8711 4.11523C87.998 4.11523 88.0615 4.15755 88.0615 4.24219C88.0615 4.29297 88.0404 4.33105 87.998 4.35645C87.9557 4.37337 87.8372 4.39876 87.6426 4.43262C86.8809 4.52572 86.1149 4.76693 85.3447 5.15625C84.583 5.54557 83.8382 6.05339 83.1104 6.67969C83.7367 7.7207 84.0498 8.93945 84.0498 10.3359C84.0498 11.8932 83.7493 13.3236 83.1484 14.627C82.556 15.9303 81.7435 17.0602 80.7109 18.0166C79.6868 18.973 78.5231 19.7135 77.2197 20.2383C75.9248 20.763 74.5749 21.0254 73.1699 21.0254C72.5352 21.0254 71.9258 20.9746 71.3418 20.873C70.7578 20.7715 70.068 20.6064 69.2725 20.3779C67.9014 20.8434 66.3864 21.0762 64.7275 21.0762ZM73.2334 20.6445C74.4775 20.6445 75.6921 20.3906 76.877 19.8828C78.0703 19.375 79.1452 18.6641 80.1016 17.75C81.0579 16.8275 81.8197 15.7399 82.3867 14.4873C82.9538 13.2347 83.2373 11.8678 83.2373 10.3867C83.2373 9.10872 83.0299 8.01693 82.6152 7.11133C81.6504 8.01693 80.7194 9.11719 79.8223 10.4121C78.849 11.8171 77.8714 13.1585 76.8896 14.4365C75.9079 15.7061 74.8499 16.8359 73.7158 17.8262C72.5817 18.8079 71.2995 19.5824 69.8691 20.1494C70.3092 20.2848 70.7917 20.4033 71.3164 20.5049C71.8496 20.598 72.4886 20.6445 73.2334 20.6445ZM64.9434 20.6699C65.5189 20.6699 66.0648 20.6318 66.5811 20.5557C67.1058 20.471 67.6348 20.3102 68.168 20.0732C67.6094 19.9294 67.0719 19.8151 66.5557 19.7305C66.0479 19.6374 65.5189 19.5908 64.9688 19.5908C64.2493 19.5908 63.7077 19.6458 63.3438 19.7559C62.9798 19.8659 62.7979 19.9928 62.7979 20.1367C62.7979 20.4922 63.513 20.6699 64.9434 20.6699ZM85.2178 21.0254C84.5068 21.0254 83.9821 20.8646 83.6436 20.543C83.305 20.2129 83.1146 19.8109 83.0723 19.3369C83.0469 18.7614 83.1654 18.1436 83.4277 17.4834C83.6986 16.8232 83.9906 16.2689 84.3037 15.8203C84.7184 15.2363 85.222 14.6777 85.8145 14.1445C86.4069 13.6029 87.0544 13.1628 87.7568 12.8242C88.4678 12.4772 89.1956 12.3037 89.9404 12.3037C90.389 12.3037 90.7741 12.4222 91.0957 12.6592C91.4258 12.8877 91.6077 13.2559 91.6416 13.7637C91.6839 14.4831 91.5443 15.2406 91.2227 16.0361C90.901 16.8232 90.4652 17.5553 89.915 18.2324C89.9743 18.4779 90.1647 18.6006 90.4863 18.6006C90.7995 18.6006 91.1423 18.4779 91.5146 18.2324C91.887 17.9785 92.2467 17.6823 92.5938 17.3438C92.9492 17.0052 93.2539 16.6921 93.5078 16.4043C93.7617 16.1165 93.931 15.9303 94.0156 15.8457L94.2949 16.0615C94.1341 16.2139 93.9056 16.4508 93.6094 16.7725C93.3132 17.0856 92.9831 17.4115 92.6191 17.75C92.2637 18.0801 91.8955 18.3636 91.5146 18.6006C91.1423 18.8376 90.791 18.9561 90.4609 18.9561C90.0547 18.9561 89.7796 18.8291 89.6357 18.5752C89.0094 19.2861 88.3027 19.8743 87.5156 20.3398C86.737 20.7969 85.971 21.0254 85.2178 21.0254ZM85.5479 20.6445C85.8441 20.6445 86.1868 20.5599 86.5762 20.3906C86.9655 20.2214 87.3548 19.9971 87.7441 19.7178C88.3958 19.2523 88.984 18.7064 89.5088 18.0801V18.0293C89.5088 17.5046 89.6442 17.0898 89.915 16.7852C90.1943 16.472 90.4652 16.2731 90.7275 16.1885C91.1423 15.3252 91.3285 14.5508 91.2861 13.8652C91.2607 13.4505 91.1507 13.1628 90.9561 13.002C90.7699 12.8411 90.5625 12.7607 90.334 12.7607C89.8431 12.7607 89.238 13.0527 88.5186 13.6367C87.8076 14.2122 87.012 15.0459 86.1318 16.1377C85.5055 16.9248 85.0654 17.5892 84.8115 18.1309C84.5661 18.6725 84.4603 19.1423 84.4941 19.54C84.4941 19.7686 84.5703 20.0098 84.7227 20.2637C84.8835 20.5176 85.1585 20.6445 85.5479 20.6445ZM94.9551 21.0762C94.1257 21.0762 93.5332 20.8604 93.1777 20.4287C92.8223 19.9971 92.6361 19.4681 92.6191 18.8418C92.6107 18.3848 92.7038 17.877 92.8984 17.3184C93.0931 16.7598 93.2962 16.3324 93.5078 16.0361C94.1341 15.1644 94.8112 14.4535 95.5391 13.9033C96.2669 13.3532 96.9779 12.9512 97.6719 12.6973C98.3743 12.4349 98.9922 12.3037 99.5254 12.3037C100.042 12.3037 100.401 12.3883 100.604 12.5576C100.816 12.7269 100.926 12.9215 100.935 13.1416C100.96 13.4717 100.782 13.8568 100.401 14.2969C100.029 14.7285 99.373 15.1982 98.4336 15.7061C97.4941 16.2139 96.1823 16.7471 94.498 17.3057C94.2018 17.7796 94.0029 18.1901 93.9014 18.5371C93.7998 18.8757 93.749 19.1803 93.749 19.4512C93.749 19.849 93.8802 20.1579 94.1426 20.3779C94.4134 20.598 94.7308 20.708 95.0947 20.708C95.8903 20.708 96.6351 20.5599 97.3291 20.2637C98.0316 19.959 98.6706 19.5781 99.2461 19.1211C99.8301 18.6641 100.342 18.2028 100.782 17.7373C101.222 17.2633 101.582 16.8529 101.861 16.5059C102.141 16.1504 102.327 15.9303 102.42 15.8457L102.687 16.0615C102.56 16.1715 102.344 16.4128 102.039 16.7852C101.743 17.1576 101.362 17.585 100.896 18.0674C100.439 18.5498 99.9105 19.0195 99.3096 19.4766C98.7087 19.9336 98.04 20.3145 97.3037 20.6191C96.5758 20.9238 95.793 21.0762 94.9551 21.0762ZM94.79 16.8613C96.432 16.2858 97.7269 15.6934 98.6748 15.084C99.6227 14.4661 100.097 13.8779 100.097 13.3193C100.097 12.8454 99.8766 12.6084 99.4365 12.6084C98.8695 12.6084 98.2559 12.9131 97.5957 13.5225C96.9355 14.1318 96.1654 15.0163 95.2852 16.1758C95.099 16.4128 94.9339 16.6413 94.79 16.8613Z" fill="white"/>
</svg>
