<svg width="20" height="20" viewBox="0 0 20 20" fill="none" xmlns="http://www.w3.org/2000/svg">
<path d="M9.375 5C9.375 5.16576 9.30915 5.32473 9.19194 5.44194C9.07473 5.55915 8.91576 5.625 8.75 5.625H7.5C7.33424 5.625 7.17527 5.55915 7.05806 5.44194C6.94085 5.32473 6.875 5.16576 6.875 5C6.875 4.83424 6.94085 4.67527 7.05806 4.55806C7.17527 4.44085 7.33424 4.375 7.5 4.375H8.75C8.91576 4.375 9.07473 4.44085 9.19194 4.55806C9.30915 4.67527 9.375 4.83424 9.375 5ZM13.4625 15.4016L13.7375 17.3234C13.7628 17.5007 13.7497 17.6814 13.6991 17.8531C13.6485 18.0249 13.5616 18.1838 13.4443 18.3191C13.3269 18.4544 13.1819 18.5628 13.019 18.6372C12.8561 18.7115 12.6791 18.75 12.5 18.75H7.5C7.32093 18.75 7.14394 18.7115 6.98103 18.6372C6.81811 18.5628 6.67307 18.4544 6.55573 18.3191C6.43839 18.1838 6.35148 18.0249 6.30089 17.8531C6.2503 17.6814 6.23721 17.5007 6.2625 17.3234L6.5375 15.4016C5.32102 14.7676 4.30151 13.8124 3.58971 12.6397C2.87791 11.4671 2.50102 10.1218 2.5 8.75C2.5 8.58424 2.56585 8.42527 2.68306 8.30806C2.80027 8.19085 2.95924 8.125 3.125 8.125H4.375V3.125C4.375 2.79348 4.5067 2.47554 4.74112 2.24112C4.97554 2.0067 5.29348 1.875 5.625 1.875H14.375C14.7065 1.875 15.0245 2.0067 15.2589 2.24112C15.4933 2.47554 15.625 2.79348 15.625 3.125V8.125H16.875C17.0408 8.125 17.1997 8.19085 17.3169 8.30806C17.4342 8.42527 17.5 8.58424 17.5 8.75C17.499 10.1218 17.1221 11.4671 16.4103 12.6397C15.6985 13.8124 14.679 14.7676 13.4625 15.4016ZM5.625 8.125H14.375V3.125H5.625V8.125ZM12.2711 15.8984C10.7933 16.3672 9.20669 16.3672 7.72891 15.8984L7.5 17.5H12.5L12.2711 15.8984ZM16.2188 9.375H3.78125C3.93601 10.9168 4.65798 12.3461 5.80708 13.3856C6.95618 14.4252 8.45047 15.0008 10 15.0008C11.5495 15.0008 13.0438 14.4252 14.1929 13.3856C15.342 12.3461 16.064 10.9168 16.2188 9.375Z" fill="#47413C"/>
</svg>
